<svg width="20" height="22" viewBox="0 0 20 22" fill="none" xmlns="http://www.w3.org/2000/svg">
<path fill-rule="evenodd" clip-rule="evenodd" d="M13.9141 11.1972C13.9779 11.2599 14.0286 11.3344 14.0632 11.4164C14.0977 11.4984 14.1155 11.5863 14.1155 11.6751C14.1155 11.7639 14.0977 11.8518 14.0632 11.9338C14.0286 12.0158 13.9779 12.0903 13.9141 12.153L9.7998 16.203C9.7361 16.2659 9.66043 16.3157 9.57712 16.3498C9.49382 16.3838 9.40451 16.4013 9.31431 16.4013C9.22412 16.4013 9.13481 16.3838 9.0515 16.3498C8.96819 16.3157 8.89252 16.2659 8.82882 16.203L6.77168 14.178C6.70793 14.1152 6.65735 14.0407 6.62285 13.9587C6.58835 13.8767 6.57059 13.7889 6.57059 13.7001C6.57059 13.6114 6.58835 13.5235 6.62285 13.4415C6.65735 13.3595 6.70793 13.285 6.77168 13.2222C6.90044 13.0955 7.07508 13.0243 7.25717 13.0243C7.34733 13.0243 7.43661 13.0417 7.51991 13.0757C7.60321 13.1097 7.6789 13.1594 7.74265 13.2222L9.31431 14.7707L12.9431 11.1972C13.0068 11.1343 13.0825 11.0845 13.1658 11.0504C13.2491 11.0164 13.3384 10.9989 13.4286 10.9989C13.5188 10.9989 13.6081 11.0164 13.6914 11.0504C13.7747 11.0845 13.8504 11.1343 13.9141 11.1972Z" fill="#262626"/>
<path d="M9.99999 1.55001C10.9093 1.55001 11.7814 1.90559 12.4244 2.53853C13.0673 3.17146 13.4286 4.02991 13.4286 4.92501V5.60001H6.57142V4.92501C6.57142 4.02991 6.93265 3.17146 7.57563 2.53853C8.21861 1.90559 9.09068 1.55001 9.99999 1.55001ZM14.8 5.60001V4.92501C14.8 3.67186 14.2943 2.47004 13.3941 1.58393C12.4939 0.697823 11.273 0.200012 9.99999 0.200012C8.72696 0.200012 7.50606 0.697823 6.60588 1.58393C5.70571 2.47004 5.19999 3.67186 5.19999 4.92501V5.60001H0.399994V19.1C0.399994 19.8161 0.688973 20.5029 1.20336 21.0092C1.71774 21.5155 2.4154 21.8 3.14285 21.8H16.8571C17.5846 21.8 18.2822 21.5155 18.7966 21.0092C19.311 20.5029 19.6 19.8161 19.6 19.1V5.60001H14.8ZM1.77142 6.95001H18.2286V19.1C18.2286 19.4581 18.0841 19.8014 17.8269 20.0546C17.5697 20.3078 17.2209 20.45 16.8571 20.45H3.14285C2.77913 20.45 2.4303 20.3078 2.1731 20.0546C1.91591 19.8014 1.77142 19.4581 1.77142 19.1V6.95001Z" fill="#262626"/>
</svg>
