<svg width="24" height="24" viewBox="0 0 24 24" fill="none" xmlns="http://www.w3.org/2000/svg">
<path d="M12 21.6C10.1013 21.6 8.24523 21.037 6.66652 19.9821C5.08781 18.9273 3.85736 17.428 3.13075 15.6738C2.40415 13.9196 2.21404 11.9894 2.58446 10.1272C2.95488 8.26494 3.86919 6.55439 5.21177 5.2118C6.55436 3.86922 8.26491 2.95491 10.1271 2.58449C11.9893 2.21407 13.9196 2.40418 15.6738 3.13078C17.4279 3.85739 18.9272 5.08784 19.9821 6.66655C21.037 8.24526 21.6 10.1013 21.6 12C21.6 14.5461 20.5886 16.9879 18.7882 18.7882C16.9879 20.5886 14.5461 21.6 12 21.6ZM12 3.77146C10.3725 3.77146 8.78163 4.25405 7.42845 5.15822C6.07527 6.06239 5.02059 7.34752 4.39779 8.85109C3.77499 10.3547 3.61203 12.0092 3.92954 13.6053C4.24704 15.2015 5.03073 16.6677 6.18152 17.8185C7.3323 18.9693 8.7985 19.753 10.3947 20.0705C11.9909 20.388 13.6454 20.225 15.1489 19.6022C16.6525 18.9794 17.9376 17.9248 18.8418 16.5716C19.746 15.2184 20.2286 13.6275 20.2286 12C20.2286 9.81767 19.3616 7.72471 17.8185 6.18155C16.2753 4.63839 14.1823 3.77146 12 3.77146Z" fill="#262626"/>
<path d="M15.1474 16.1143L11.3143 12.2812V5.82861H12.6857V11.712L16.1143 15.1475L15.1474 16.1143Z" fill="#262626"/>
</svg>
