<svg width="95" height="80" viewBox="0 0 95 80" fill="none" xmlns="http://www.w3.org/2000/svg">
<g filter="url(#filter0_d)">
<path d="M2 19C2 9.05887 10.0589 1 20 1H75C84.9411 1 93 9.05888 93 19V59C93 68.9411 84.9411 77 75 77H20C10.0589 77 2 68.9411 2 59V19Z" fill="#FB9155"/>
<path d="M61.3926 22.4626C61.3027 22.3262 61.1665 22.2355 61.0155 22.212C60.9882 22.2076 60.333 22.107 59.3216 22.107C58.4309 22.107 57.3753 22.1842 56.2657 22.4208C56.307 19.3468 55.5102 16.869 55.4595 16.7147C55.407 16.5564 55.2989 16.4275 55.1594 16.3587C55.0196 16.2899 54.8614 16.2863 54.7191 16.35C54.5926 16.4064 52.7214 17.2612 50.8362 19.0255C49.5451 16.7385 47.9734 15.2503 47.8627 15.1465C47.6528 14.9512 47.3462 14.9512 47.1363 15.1465C47.0252 15.2503 45.4538 16.7381 44.1634 19.0251C42.2786 17.2604 40.4074 16.4064 40.2809 16.3496C40.1386 16.2863 39.9804 16.2895 39.8406 16.3583C39.7011 16.4267 39.593 16.5556 39.5405 16.7143C39.4894 16.8686 38.693 19.3464 38.7343 22.4204C37.6247 22.1838 36.5691 22.1066 35.6784 22.1066C34.6674 22.1066 34.0118 22.2072 33.9845 22.2116C33.8335 22.2351 33.6973 22.3258 33.6074 22.4622C33.5179 22.599 33.482 22.77 33.5086 22.9363C33.5481 23.1801 34.5017 28.9355 38.4029 32.072C40.1734 33.4958 42.1233 34.2924 43.7929 34.654C44.4211 34.858 45.8438 35 47.4996 35C49.1537 35 50.5738 34.8584 51.2039 34.6552C52.8742 34.2932 54.8251 33.497 56.5975 32.072C60.4987 28.9355 61.4526 23.1805 61.4914 22.9371C61.518 22.7708 61.4821 22.5994 61.3926 22.4626ZM54.5825 17.7941C54.9685 19.3349 55.7269 23.3292 54.3201 26.8268C53.3295 29.2887 51.7923 31.0757 50.4958 32.1567C51.6144 30.3204 52.5392 27.732 52.5392 24.9408C52.5392 23.1852 52.0593 21.5522 51.4084 20.1407C52.633 18.9602 53.8849 18.1803 54.5825 17.7941ZM47.5 16.4693C48.5334 17.5674 51.4124 20.9823 51.4124 24.9412C51.4124 29.8336 48.2918 33.6346 47.4996 33.635C46.7082 33.6346 43.5884 29.8328 43.5884 24.9408C43.5884 20.991 46.4681 17.569 47.5 16.4693ZM40.4189 17.7945C41.1169 18.1807 42.3681 18.9606 43.5923 20.1411C42.9414 21.5526 42.4615 23.1856 42.4615 24.9408C42.4615 27.7324 43.3856 30.3196 44.5042 32.1563C43.2081 31.0753 41.6708 29.2883 40.6806 26.8268C39.2774 23.3392 40.034 19.3381 40.4189 17.7945ZM34.7569 23.3845C35.0041 23.3674 35.3169 23.3535 35.6788 23.3535C36.4591 23.3535 37.582 23.4235 38.8029 23.7162C38.9147 24.9022 39.1699 26.1367 39.6515 27.3339C40.7528 30.0722 42.5838 32.2346 44.1994 33.4723C42.6344 33.1653 40.7647 32.4307 39.0646 31.0637C36.2729 28.8182 35.1202 24.9328 34.7569 23.3845ZM55.9358 31.0637C54.236 32.4307 52.3656 33.1649 50.8006 33.4723C52.4166 32.235 54.2475 30.0726 55.3488 27.3339C55.8304 26.1371 56.086 24.9026 56.1974 23.7162C57.4184 23.4235 58.5412 23.3535 59.3216 23.3535C59.6842 23.3535 59.9973 23.3674 60.2442 23.3849C59.8833 24.9316 58.7353 28.8122 55.9358 31.0637Z" fill="white"/>
<path d="M26.2949 57.9258H19.2129V56.3125H26.2949V57.9258ZM33.6924 56.1484H34.7451C35.2464 56.1484 35.6178 56.0231 35.8594 55.7725C36.1009 55.5218 36.2217 55.1891 36.2217 54.7744C36.2217 54.3734 36.1009 54.0612 35.8594 53.8379C35.6224 53.6146 35.2943 53.5029 34.875 53.5029C34.4967 53.5029 34.18 53.6077 33.9248 53.8174C33.6696 54.0225 33.542 54.2913 33.542 54.624H31.5664C31.5664 54.1045 31.7054 53.6396 31.9834 53.2295C32.266 52.8148 32.6579 52.4912 33.1592 52.2588C33.665 52.0264 34.221 51.9102 34.8271 51.9102C35.8799 51.9102 36.7048 52.1631 37.3018 52.6689C37.8988 53.1702 38.1973 53.863 38.1973 54.7471C38.1973 55.2028 38.0583 55.6221 37.7803 56.0049C37.5023 56.3877 37.1377 56.6816 36.6865 56.8867C37.2471 57.0872 37.6641 57.388 37.9375 57.7891C38.2155 58.1901 38.3545 58.6641 38.3545 59.2109C38.3545 60.0951 38.0309 60.8037 37.3838 61.3369C36.7412 61.8701 35.889 62.1367 34.8271 62.1367C33.8337 62.1367 33.0202 61.8747 32.3867 61.3506C31.7578 60.8265 31.4434 60.1338 31.4434 59.2725H33.4189C33.4189 59.6462 33.5579 59.9515 33.8359 60.1885C34.1185 60.4255 34.4648 60.5439 34.875 60.5439C35.3444 60.5439 35.7113 60.4209 35.9756 60.1748C36.2445 59.9242 36.3789 59.5938 36.3789 59.1836C36.3789 58.1901 35.832 57.6934 34.7383 57.6934H33.6924V56.1484ZM46.6709 57.8848C46.6709 59.2611 46.3861 60.3138 45.8164 61.043C45.2467 61.7721 44.4128 62.1367 43.3145 62.1367C42.2298 62.1367 41.4004 61.779 40.8262 61.0635C40.252 60.348 39.958 59.3226 39.9443 57.9873V56.1553C39.9443 54.7653 40.2314 53.7103 40.8057 52.9902C41.3844 52.2702 42.2161 51.9102 43.3008 51.9102C44.3854 51.9102 45.2148 52.2679 45.7891 52.9834C46.3633 53.6943 46.6572 54.7174 46.6709 56.0527V57.8848ZM44.6953 55.875C44.6953 55.0501 44.5814 54.4508 44.3535 54.0771C44.1302 53.6989 43.7793 53.5098 43.3008 53.5098C42.8359 53.5098 42.4919 53.6898 42.2686 54.0498C42.0498 54.4053 41.9336 54.9635 41.9199 55.7246V58.1445C41.9199 58.9557 42.0293 59.5596 42.248 59.9561C42.4714 60.348 42.8268 60.5439 43.3145 60.5439C43.7975 60.5439 44.1462 60.3548 44.3604 59.9766C44.5745 59.5983 44.6862 59.0195 44.6953 58.2402V55.875ZM60.3848 57.249C60.3848 58.2288 60.2116 59.0879 59.8652 59.8262C59.5189 60.5645 59.0221 61.1341 58.375 61.5352C57.7324 61.9362 56.9941 62.1367 56.1602 62.1367C55.3353 62.1367 54.5993 61.9385 53.9521 61.542C53.305 61.1455 52.8037 60.5804 52.4482 59.8467C52.0928 59.1084 51.9128 58.2607 51.9082 57.3037V56.8115C51.9082 55.8317 52.0837 54.9704 52.4346 54.2275C52.79 53.4801 53.2891 52.9082 53.9316 52.5117C54.5788 52.1107 55.3171 51.9102 56.1465 51.9102C56.9759 51.9102 57.7119 52.1107 58.3545 52.5117C59.0016 52.9082 59.5007 53.4801 59.8516 54.2275C60.207 54.9704 60.3848 55.8294 60.3848 56.8047V57.249ZM58.3066 56.7979C58.3066 55.7542 58.1198 54.9613 57.7461 54.4189C57.3724 53.8766 56.8392 53.6055 56.1465 53.6055C55.4583 53.6055 54.9274 53.8743 54.5537 54.4121C54.18 54.9453 53.9909 55.7292 53.9863 56.7637V57.249C53.9863 58.2653 54.1732 59.0537 54.5469 59.6143C54.9206 60.1748 55.4583 60.4551 56.1602 60.4551C56.8483 60.4551 57.377 60.1862 57.7461 59.6484C58.1152 59.1061 58.3021 58.3177 58.3066 57.2832V56.7979ZM68.1133 57.9326H64.1758V62H62.125V52.0469H68.6055V53.708H64.1758V56.2783H68.1133V57.9326ZM76.0332 57.9326H72.0957V62H70.0449V52.0469H76.5254V53.708H72.0957V56.2783H76.0332V57.9326Z" fill="white"/>
</g>
<defs>
<filter id="filter0_d" x="0" y="0" width="95" height="80" filterUnits="userSpaceOnUse" color-interpolation-filters="sRGB">
<feFlood flood-opacity="0" result="BackgroundImageFix"/>
<feColorMatrix in="SourceAlpha" type="matrix" values="0 0 0 0 0 0 0 0 0 0 0 0 0 0 0 0 0 0 127 0"/>
<feOffset dy="1"/>
<feGaussianBlur stdDeviation="1"/>
<feColorMatrix type="matrix" values="0 0 0 0 0.121569 0 0 0 0 0.121569 0 0 0 0 0.121569 0 0 0 0.3 0"/>
<feBlend mode="normal" in2="BackgroundImageFix" result="effect1_dropShadow"/>
<feBlend mode="normal" in="SourceGraphic" in2="effect1_dropShadow" result="shape"/>
</filter>
</defs>
</svg>
