<svg width="18" height="17" viewBox="0 0 18 17" fill="none" xmlns="http://www.w3.org/2000/svg">
<path d="M1.8 1.8C1.8 0.81 2.61 0 3.6 0C4.59 0 5.4 0.81 5.4 1.8C5.4 2.79 4.59 3.6 3.6 3.6C2.61 3.6 1.8 2.79 1.8 1.8ZM6.102 5.022C5.31283 4.67758 4.46105 4.4998 3.6 4.4998C2.73895 4.4998 1.88717 4.67758 1.098 5.022C0.771941 5.16137 0.494031 5.39349 0.298816 5.68951C0.103601 5.98554 -0.000309318 6.3324 6.91645e-07 6.687V7.2H7.2V6.687C7.2 5.958 6.768 5.31 6.102 5.022ZM14.4 3.6C15.39 3.6 16.2 2.79 16.2 1.8C16.2 0.81 15.39 0 14.4 0C13.41 0 12.6 0.81 12.6 1.8C12.6 2.79 13.41 3.6 14.4 3.6ZM16.902 5.022C16.1128 4.67758 15.2611 4.4998 14.4 4.4998C13.5389 4.4998 12.6872 4.67758 11.898 5.022C11.5719 5.16137 11.294 5.39349 11.0988 5.68951C10.9036 5.98554 10.7997 6.3324 10.8 6.687V7.2H18V6.687C18 5.958 17.568 5.31 16.902 5.022ZM18 12.6L14.4 9V11.7H3.6V9L6.91645e-07 12.6L3.6 16.2V13.5H14.4V16.2L18 12.6Z" fill="#262626"/>
</svg>
