<svg width="22" height="20" viewBox="0 0 22 20" fill="none" xmlns="http://www.w3.org/2000/svg">
<path d="M21.5213 12.0562C21.5213 11.5409 21.3268 11.0672 21.0145 10.7132C21.5008 10.3488 21.8182 9.75534 21.8182 9.09422C21.8182 7.98542 20.9326 7.07965 19.8371 7.07965H13.8885C13.9499 5.38782 13.6428 3.28475 13.264 2.05622C12.8851 0.827694 11.7794 0 10.5149 0C10.1566 0 9.81872 0.145757 9.56276 0.406038C9.31192 0.666319 9.1737 1.0151 9.17882 1.37949C9.19418 2.46226 9.11739 4.51327 8.42629 6.06976C7.61233 7.90213 6.74718 8.39667 5.95882 8.50078C5.79501 8.01666 5.34451 7.67309 4.81211 7.67309H1.21329C0.542669 7.67309 3.05176e-05 8.22488 3.05176e-05 8.90682V18.7663C3.05176e-05 19.4482 0.542669 20 1.21329 20H4.81211C5.46737 20 5.99977 19.469 6.02537 18.8131H7.15672C7.89389 18.8131 8.63106 18.9953 9.2812 19.3441C10.0849 19.771 10.9859 20 11.892 20H18.3115C19.4019 20 20.2927 19.0994 20.2927 17.9854C20.2927 17.5638 20.1647 17.1733 19.9497 16.8506C20.6306 16.5331 21.1066 15.8303 21.1066 15.0234C21.1066 14.5341 20.9326 14.0812 20.6459 13.7324C21.1732 13.368 21.5213 12.7538 21.5213 12.0562ZM4.98105 18.7611C4.98105 18.8548 4.90426 18.9328 4.81211 18.9328H1.21329C1.12114 18.9328 1.04435 18.8548 1.04435 18.7611V8.90682C1.04435 8.81312 1.12114 8.73503 1.21329 8.73503H4.81211C4.90426 8.73503 4.98105 8.81312 4.98105 8.90682V18.7611ZM19.1255 15.9708H18.3167H17.9378C17.6512 15.9708 17.4157 16.2103 17.4157 16.5018C17.4157 16.7933 17.6512 17.0328 17.9378 17.0328H18.3167C18.8337 17.0328 19.2535 17.4597 19.2535 17.9854C19.2535 18.5112 18.8337 18.9381 18.3167 18.9381H11.8971C11.16 18.9381 10.4228 18.7559 9.77265 18.4071C8.96893 17.9802 8.06795 17.7512 7.16184 17.7512H6.03049V9.56273C7.04922 9.4482 8.33415 8.87038 9.37847 6.50703C10.1515 4.76314 10.2385 2.54034 10.2231 1.36908C10.2231 1.28579 10.2539 1.21291 10.3051 1.15565C10.3614 1.09839 10.433 1.06715 10.5098 1.06715C11.3187 1.06715 12.02 1.59292 12.2657 2.37897C12.6599 3.64914 12.9671 5.93961 12.8084 7.56377C12.793 7.71473 12.8442 7.86049 12.9415 7.97501C13.0387 8.08433 13.1821 8.152 13.3305 8.152H19.8371C20.3541 8.152 20.7739 8.57887 20.7739 9.10463C20.7739 9.6304 20.3541 10.0573 19.8371 10.0573H19.5402H17.9327C17.646 10.0573 17.4106 10.2967 17.4106 10.5882C17.4106 10.8797 17.646 11.1192 17.9327 11.1192H19.5402C20.0572 11.1192 20.477 11.5461 20.477 12.0718C20.477 12.5976 20.0572 13.0245 19.5402 13.0245H19.1255H17.9327C17.646 13.0245 17.4106 13.2639 17.4106 13.5554C17.4106 13.847 17.646 14.0864 17.9327 14.0864H19.1255C19.6425 14.0864 20.0623 14.5133 20.0623 15.039C20.0623 15.544 19.6425 15.9708 19.1255 15.9708Z" fill="#434343"/>
<path d="M3.49883 17.5671C3.76672 17.2947 3.76672 16.853 3.49883 16.5806C3.23095 16.3082 2.79661 16.3082 2.52873 16.5806C2.26084 16.853 2.26084 17.2947 2.52873 17.5671C2.79661 17.8395 3.23095 17.8395 3.49883 17.5671Z" fill="#434343"/>
</svg>
