<svg width="33" height="32" viewBox="0 0 33 32" fill="none" xmlns="http://www.w3.org/2000/svg">
<path d="M30.3926 13.4626C30.3027 13.3262 30.1665 13.2355 30.0155 13.212C29.9882 13.2076 29.333 13.107 28.3216 13.107C27.4309 13.107 26.3753 13.1842 25.2657 13.4208C25.307 10.3468 24.5102 7.869 24.4595 7.71468C24.407 7.55639 24.2989 7.42753 24.1594 7.35872C24.0196 7.28992 23.8614 7.28634 23.7191 7.34997C23.5926 7.40645 21.7214 8.26115 19.8362 10.0255C18.5451 7.73855 16.9734 6.25027 16.8627 6.14646C16.6528 5.95118 16.3462 5.95118 16.1363 6.14646C16.0252 6.25027 14.4538 7.73815 13.1634 10.0251C11.2786 8.26036 9.40742 7.40645 9.2809 7.34957C9.13857 7.28634 8.98042 7.28952 8.8406 7.35832C8.70115 7.42673 8.59296 7.55559 8.54048 7.71429C8.48944 7.8686 7.69295 10.3464 7.73429 13.4204C6.62473 13.1838 5.5691 13.1066 4.67843 13.1066C3.66737 13.1066 3.01177 13.2072 2.98445 13.2116C2.83349 13.2351 2.69727 13.3258 2.60741 13.4622C2.51792 13.599 2.48197 13.77 2.50857 13.9363C2.54811 14.1801 3.50167 19.9355 7.40289 23.072C9.17343 24.4958 11.1233 25.2924 12.7929 25.654C13.4211 25.858 14.8438 26 16.4996 26C18.1537 26 19.5738 25.8584 20.2039 25.6552C21.8742 25.2932 23.8251 24.497 25.5975 23.072C29.4987 19.9355 30.4526 14.1805 30.4914 13.9371C30.518 13.7708 30.4821 13.5994 30.3926 13.4626ZM23.5825 8.7941C23.9685 10.3349 24.7269 14.3292 23.3201 17.8268C22.3295 20.2887 20.7923 22.0757 19.4958 23.1567C20.6144 21.3204 21.5392 18.732 21.5392 15.9408C21.5392 14.1852 21.0593 12.5522 20.4084 11.1407C21.633 9.96023 22.8849 9.18029 23.5825 8.7941ZM16.5 7.46929C17.5334 8.5674 20.4124 11.9823 20.4124 15.9412C20.4124 20.8336 17.2918 24.6346 16.4996 24.635C15.7082 24.6346 12.5884 20.8328 12.5884 15.9408C12.5884 11.991 15.4681 8.56899 16.5 7.46929ZM9.41892 8.7945C10.1169 9.18069 11.3681 9.96063 12.5923 11.1411C11.9414 12.5526 11.4615 14.1856 11.4615 15.9408C11.4615 18.7324 12.3856 21.3196 13.5042 23.1563C12.2081 22.0753 10.6708 20.2883 9.68058 17.8268C8.27738 14.3392 9.03397 10.3381 9.41892 8.7945ZM3.75686 14.3845C4.00415 14.3674 4.31685 14.3535 4.67879 14.3535C5.45911 14.3535 6.58196 14.4235 7.80294 14.7162C7.91472 15.9022 8.16991 17.1367 8.65154 18.3339C9.75283 21.0722 11.5838 23.2346 13.1994 24.4723C11.6344 24.1653 9.76469 23.4307 8.0646 22.0637C5.27293 19.8182 4.12024 15.9328 3.75686 14.3845ZM24.9358 22.0637C23.236 23.4307 21.3656 24.1649 19.8006 24.4723C21.4166 23.235 23.2475 21.0726 24.3488 18.3339C24.8304 17.1371 25.086 15.9026 25.1974 14.7162C26.4184 14.4235 27.5412 14.3535 28.3216 14.3535C28.6842 14.3535 28.9973 14.3674 29.2442 14.3849C28.8833 15.9316 27.7353 19.8122 24.9358 22.0637Z" fill="white"/>
</svg>
