<svg width="25" height="24" viewBox="0 0 25 24" fill="none" xmlns="http://www.w3.org/2000/svg">
<path d="M12.5 14.5397C15.0313 14.5397 17.0833 12.4841 17.0833 9.94842C17.0833 7.41275 15.0313 5.35718 12.5 5.35718C9.9687 5.35718 7.91667 7.41275 7.91667 9.94842C7.91667 12.4841 9.9687 14.5397 12.5 14.5397Z" fill="#434343"/>
<path d="M20.325 18.2545C21.3196 17.0024 22.0003 15.5298 22.3101 13.96C22.6199 12.3903 22.5498 10.769 22.1057 9.23199C21.6615 7.69495 20.8563 6.28686 19.7573 5.12559C18.6583 3.96432 17.2976 3.08367 15.7891 2.55736C14.2806 2.03106 12.6682 1.8744 11.0869 2.10052C9.50552 2.32665 8.00125 2.92896 6.7 3.85704C5.39875 4.78512 4.33837 6.01196 3.60765 7.43486C2.87693 8.85775 2.49712 10.4353 2.50002 12.0354C2.5014 14.2928 3.2683 16.4827 4.67502 18.2461C5.61196 19.4176 6.79974 20.3631 8.15056 21.0129C9.50138 21.6627 10.9807 22 12.4792 22C13.9777 22 15.457 21.6627 16.8078 21.0129C18.1586 20.3631 19.3464 19.4176 20.2833 18.2461L20.325 18.2545ZM12.5 3.68773C14.0476 3.68773 15.5646 4.11943 16.8811 4.93445C18.1976 5.74948 19.2615 6.91562 19.9536 8.30223C20.6457 9.68883 20.9387 11.2411 20.7997 12.7851C20.6607 14.3291 20.0952 15.8038 19.1667 17.0441C17.0949 16.001 14.8181 15.4308 12.5 15.3745C10.1819 15.4308 7.90514 16.001 5.83335 17.0441C4.90479 15.8038 4.33934 14.3291 4.20036 12.7851C4.06137 11.2411 4.35435 9.68883 5.04646 8.30223C5.73856 6.91562 6.80246 5.74948 8.11892 4.93445C9.43539 4.11943 10.9524 3.68773 12.5 3.68773Z" fill="#434343"/>
</svg>
