<svg width="24" height="24" viewBox="0 0 24 24" fill="none" xmlns="http://www.w3.org/2000/svg">
<path d="M7.95 11.8501C7.95 12.2082 7.80777 12.5515 7.55459 12.8047C7.30142 13.0579 6.95804 13.2001 6.6 13.2001C6.24196 13.2001 5.89858 13.0579 5.64541 12.8047C5.39223 12.5515 5.25 12.2082 5.25 11.8501C5.25 11.4921 5.39223 11.1487 5.64541 10.8955C5.89858 10.6424 6.24196 10.5001 6.6 10.5001C6.95804 10.5001 7.30142 10.6424 7.55459 10.8955C7.80777 11.1487 7.95 11.4921 7.95 11.8501ZM13.35 11.8501C13.35 12.2082 13.2078 12.5515 12.9546 12.8047C12.7014 13.0579 12.358 13.2001 12 13.2001C11.642 13.2001 11.2986 13.0579 11.0454 12.8047C10.7922 12.5515 10.65 12.2082 10.65 11.8501C10.65 11.4921 10.7922 11.1487 11.0454 10.8955C11.2986 10.6424 11.642 10.5001 12 10.5001C12.358 10.5001 12.7014 10.6424 12.9546 10.8955C13.2078 11.1487 13.35 11.4921 13.35 11.8501ZM17.4 13.2001C17.758 13.2001 18.1014 13.0579 18.3546 12.8047C18.6078 12.5515 18.75 12.2082 18.75 11.8501C18.75 11.4921 18.6078 11.1487 18.3546 10.8955C18.1014 10.6424 17.758 10.5001 17.4 10.5001C17.042 10.5001 16.6986 10.6424 16.4454 10.8955C16.1922 11.1487 16.05 11.4921 16.05 11.8501C16.05 12.2082 16.1922 12.5515 16.4454 12.8047C16.6986 13.0579 17.042 13.2001 17.4 13.2001Z" fill="#262626"/>
<path d="M4.12276 22.3841L4.14976 22.3787C6.62026 21.8886 8.12956 21.242 8.83156 20.8869C9.8651 21.1626 10.9303 21.3015 12 21.3C17.9643 21.3 22.8 17.0691 22.8 11.85C22.8 6.63092 17.9643 2.40002 12 2.40002C6.03571 2.40002 1.20001 6.63092 1.20001 11.85C1.20001 14.226 2.20306 16.3995 3.85951 18.06C3.74362 19.1267 3.50629 20.1766 3.15211 21.1893L3.14806 21.2042C3.04741 21.4942 2.93756 21.781 2.81866 22.0641C2.71201 22.3152 2.91856 22.596 3.18721 22.5528C3.49996 22.5016 3.81185 22.4454 4.12276 22.3841ZM5.20276 18.1883C5.22167 17.9906 5.19675 17.7912 5.12978 17.6043C5.06281 17.4174 4.95544 17.2476 4.81531 17.1069C3.38431 15.6705 2.55001 13.8318 2.55001 11.85C2.55001 7.54082 6.60541 3.75002 12 3.75002C17.3946 3.75002 21.45 7.54082 21.45 11.85C21.45 16.1606 17.3946 19.95 12 19.95C11.0484 19.9514 10.1007 19.828 9.18121 19.5828C8.85988 19.4967 8.51808 19.5323 8.22136 19.6827C7.69891 19.9473 6.54736 20.4522 4.66546 20.8883C4.92801 20.0069 5.10788 19.103 5.20276 18.1883Z" fill="#262626"/>
</svg>
