<svg width="20" height="20" viewBox="0 0 20 20" fill="none" xmlns="http://www.w3.org/2000/svg">
<path d="M7.10714 6.79639C6.78928 6.79639 6.47856 6.89056 6.21426 7.06701C5.94997 7.24345 5.74398 7.49424 5.62234 7.78765C5.5007 8.08107 5.46887 8.40393 5.53088 8.71542C5.59289 9.02691 5.74596 9.31303 5.97072 9.5376C6.19549 9.76217 6.48185 9.9151 6.79361 9.97706C7.10536 10.039 7.4285 10.0072 7.72217 9.88568C8.01584 9.76414 8.26684 9.55833 8.44343 9.29426C8.62003 9.0302 8.71429 8.71974 8.71429 8.40215C8.71429 7.97627 8.54496 7.56784 8.24357 7.2667C7.94217 6.96556 7.53338 6.79639 7.10714 6.79639Z" fill="#262626"/>
<path d="M12.8928 6.79639C12.5749 6.79639 12.2642 6.89056 11.9999 7.06701C11.7356 7.24345 11.5296 7.49424 11.408 7.78765C11.2863 8.08107 11.2545 8.40393 11.3165 8.71542C11.3785 9.02691 11.5316 9.31303 11.7564 9.5376C11.9811 9.76217 12.2675 9.9151 12.5792 9.97706C12.891 10.039 13.2141 10.0072 13.5078 9.88568C13.8015 9.76414 14.0525 9.55833 14.2291 9.29426C14.4057 9.0302 14.4999 8.71974 14.4999 8.40215C14.4999 7.97627 14.3306 7.56784 14.0292 7.2667C13.7278 6.96556 13.319 6.79639 12.8928 6.79639Z" fill="#262626"/>
<path d="M19 10.0077C19.0027 8.43175 18.5908 6.88274 17.8056 5.51591C17.0204 4.14908 15.8895 3.01243 14.5261 2.21987C13.1628 1.4273 11.6149 1.00666 10.0376 1.00008C8.46026 0.993499 6.90891 1.40122 5.53898 2.18238C4.16905 2.96354 3.02865 4.09071 2.23206 5.45094C1.43547 6.81118 1.01066 8.3567 1.0002 9.93264C0.989738 11.5086 1.39399 13.0596 2.17246 14.4303C2.95093 15.8009 4.07626 16.9431 5.4357 17.7424L5.44534 17.8426C5.47594 18.16 5.62405 18.4547 5.86068 18.6688C6.09731 18.8829 6.4054 19.001 6.72463 19H13.2753C13.5944 19.001 13.9023 18.8831 14.1389 18.6692C14.3755 18.4554 14.5237 18.1611 14.5546 17.8438L14.5643 17.7424C15.9142 16.9512 17.0336 15.8212 17.8117 14.4645C18.5898 13.1077 18.9994 11.5714 19 10.0077ZM9.99999 2.30006C11.9776 2.30094 13.8793 3.0613 15.3116 4.42384C16.7439 5.78639 17.5972 7.64687 17.695 9.62041L14.3483 11.2923H5.6517L2.30499 9.62041C2.4028 7.64687 3.2561 5.78639 4.68838 4.42384C6.12066 3.0613 8.02232 2.30094 9.99999 2.30006ZM2.36284 11.0855L4.8957 12.3509L5.2692 16.0826C3.68682 14.858 2.64429 13.0655 2.36284 11.0855ZM13.2753 17.7154H6.72463L6.21034 12.5769H13.7896L13.2753 17.7154ZM14.7308 16.0826L15.1043 12.3509L17.6371 11.0855C17.3558 13.0654 16.3135 14.8578 14.7314 16.0826H14.7308Z" fill="#262626"/>
</svg>
