<svg width="24" height="24" viewBox="0 0 24 24" fill="none" xmlns="http://www.w3.org/2000/svg">
<path d="M11.2849 14.5976C12.2447 13.9601 12.9738 13.0304 13.3642 11.9463C13.7546 10.8622 13.7856 9.68118 13.4526 8.57806C13.1196 7.47495 12.4403 6.50835 11.5152 5.82131C10.5902 5.13428 9.46854 4.76331 8.31626 4.76331C7.16399 4.76331 6.04233 5.13428 5.11728 5.82131C4.19223 6.50835 3.51294 7.47495 3.17996 8.57806C2.84697 9.68118 2.87797 10.8622 3.26837 11.9463C3.65877 13.0304 4.38782 13.9601 5.34764 14.5976C3.71146 15.2012 2.29734 16.2877 1.2927 17.7132C1.23789 17.79 1.19881 17.8769 1.1777 17.9688C1.1566 18.0608 1.15389 18.156 1.16974 18.249C1.18558 18.342 1.21966 18.4309 1.27002 18.5107C1.32037 18.5905 1.38601 18.6595 1.46315 18.7138C1.54029 18.7681 1.62741 18.8066 1.71949 18.8271C1.81158 18.8476 1.90681 18.8497 1.9997 18.8332C2.09259 18.8168 2.18131 18.7821 2.26075 18.7312C2.34019 18.6804 2.40879 18.6143 2.46258 18.5368C3.12278 17.5976 3.99927 16.831 5.01805 16.3019C6.03683 15.7727 7.16798 15.4964 8.31599 15.4964C9.46401 15.4963 10.5952 15.7725 11.614 16.3017C12.6328 16.8308 13.5093 17.5973 14.1696 18.5364C14.2236 18.6133 14.2923 18.6789 14.3717 18.7292C14.4511 18.7796 14.5396 18.8138 14.6322 18.83C14.7248 18.8461 14.8197 18.8438 14.9114 18.8233C15.0032 18.8027 15.09 18.7642 15.1668 18.7101C15.2437 18.656 15.3091 18.5872 15.3594 18.5078C15.4097 18.4284 15.4438 18.3398 15.4598 18.2472C15.4759 18.1545 15.4735 18.0596 15.4528 17.9679C15.4321 17.8762 15.3936 17.7895 15.3394 17.7127C14.3348 16.2874 12.9208 15.2011 11.2849 14.5975V14.5976ZM4.38172 10.1313C4.38172 9.35309 4.61248 8.5924 5.04481 7.94537C5.47713 7.29835 6.09162 6.79406 6.81055 6.49626C7.52949 6.19847 8.32058 6.12055 9.0838 6.27237C9.84702 6.42418 10.5481 6.7989 11.0983 7.34915C11.6486 7.8994 12.0233 8.60046 12.1751 9.36368C12.3269 10.1269 12.249 10.918 11.9512 11.6369C11.6534 12.3559 11.1491 12.9703 10.5021 13.4027C9.85508 13.835 9.09439 14.0658 8.31622 14.0658C7.27309 14.0646 6.27302 13.6497 5.53542 12.9121C4.79781 12.1745 4.38291 11.1744 4.38172 10.1313ZM22.4561 18.7095C22.3793 18.7636 22.2926 18.8021 22.2009 18.8227C22.1092 18.8432 22.0144 18.8456 21.9219 18.8295C21.8293 18.8134 21.7408 18.7793 21.6614 18.729C21.5821 18.6787 21.5134 18.6133 21.4593 18.5365C20.7983 17.5982 19.9216 16.8323 18.903 16.3033C17.8844 15.7743 16.7537 15.4976 15.6059 15.4965C15.4162 15.4965 15.2343 15.4211 15.1001 15.287C14.966 15.1528 14.8906 14.9708 14.8906 14.7811C14.8906 14.5914 14.966 14.4094 15.1001 14.2753C15.2343 14.1411 15.4162 14.0658 15.6059 14.0658C16.1678 14.0651 16.723 13.9442 17.2342 13.711C17.7454 13.4779 18.2007 13.138 18.5695 12.7141C18.9384 12.2903 19.2122 11.7924 19.3725 11.2539C19.5328 10.7154 19.5759 10.1488 19.4989 9.59229C19.422 9.03574 19.2267 8.50213 18.9263 8.02736C18.6258 7.55259 18.2272 7.14767 17.7572 6.83984C17.2872 6.53202 16.7567 6.32843 16.2014 6.24277C15.6461 6.15711 15.0789 6.19136 14.538 6.34324C14.3556 6.39382 14.1606 6.37006 13.9957 6.27717C13.8308 6.18428 13.7094 6.02982 13.6582 5.84762C13.6069 5.66543 13.63 5.47035 13.7222 5.3051C13.8145 5.13986 13.9685 5.01792 14.1505 4.96598C15.3811 4.61878 16.6953 4.72257 17.8561 5.25863C19.017 5.7947 19.9482 6.72779 20.4819 7.88972C21.0156 9.05166 21.1167 10.366 20.767 11.5959C20.4172 12.8258 19.6397 13.8903 18.5745 14.5976C20.2105 15.2011 21.6245 16.2875 22.6291 17.7128C22.7383 17.8679 22.7815 18.0601 22.749 18.247C22.7166 18.4339 22.6112 18.6003 22.4561 18.7095Z" fill="#262626"/>
</svg>
