<svg width="11" height="18" viewBox="0 0 11 18" fill="none" xmlns="http://www.w3.org/2000/svg">
<path d="M2.57143 0V3.85714H3.85714V4.5405C1.22014 4.82143 0.0803571 6.76929 0.0803571 6.76929L0 6.91071V18H9V6.91071L8.91964 6.76993C8.91964 6.76993 7.77986 4.82143 5.14286 4.53986V3.85714H6.42857V0H2.57143ZM10.2857 0C9.93214 0 9.64286 0.289286 9.64286 0.642857C9.64286 0.996429 9.93214 1.28571 10.2857 1.28571C10.6393 1.28571 10.9286 0.996429 10.9286 0.642857C10.9286 0.289286 10.6393 0 10.2857 0ZM3.85714 1.28571H5.14286V2.57143H3.85714V1.28571ZM8.35714 1.28571C8.00357 1.28571 7.71429 1.575 7.71429 1.92857C7.71429 2.28214 8.00357 2.57143 8.35714 2.57143C8.71071 2.57143 9 2.28214 9 1.92857C9 1.575 8.71071 1.28571 8.35714 1.28571ZM10.2857 2.57143C9.93214 2.57143 9.64286 2.86071 9.64286 3.21429C9.64286 3.56786 9.93214 3.85714 10.2857 3.85714C10.6393 3.85714 10.9286 3.56786 10.9286 3.21429C10.9286 2.86071 10.6393 2.57143 10.2857 2.57143ZM4.5 5.78571C5.61729 5.78571 6.37071 6.09429 6.87086 6.42857H2.12979C2.62929 6.09429 3.38271 5.78571 4.5 5.78571ZM1.28571 7.71429H7.71429V16.7143H1.28571V7.71429ZM4.5 10.2857C3.4425 10.2857 2.57143 11.1568 2.57143 12.2143C2.57143 13.2718 3.4425 14.1429 4.5 14.1429C5.5575 14.1429 6.42857 13.2718 6.42857 12.2143C6.42857 11.1568 5.5575 10.2857 4.5 10.2857ZM4.5 11.5714C4.86193 11.5714 5.14286 11.853 5.14286 12.2143C5.14286 12.5762 4.86129 12.8571 4.5 12.8571C4.13807 12.8571 3.85714 12.5756 3.85714 12.2143C3.85714 11.8524 4.13871 11.5714 4.5 11.5714Z" fill="#262626"/>
</svg>
