<svg width="24" height="24" viewBox="0 0 24 24" fill="none" xmlns="http://www.w3.org/2000/svg">
<path d="M9.56612 3.60001L9.03391 5.2226H6.72657C5.65566 5.2226 4.70157 5.92032 4.39409 6.94661L3.27856 10.6737L1.70626 10.1415L1.20001 11.6619L2.79665 12.1949L2.28959 13.9189C2.27014 13.9933 2.26166 14.0701 2.26444 14.1469V20.6373C2.26444 21.0835 2.62952 21.4486 3.07573 21.4486H5.50963L5.78871 20.6373H18.2113L18.4904 21.4486H20.9243C21.3705 21.4486 21.7356 21.0835 21.7356 20.6373V19.9525C21.7388 19.912 21.7388 19.8673 21.7356 19.826V14.1469C21.7384 14.0701 21.7299 13.9933 21.7104 13.9189L21.2034 12.1949L22.8 11.6627L22.2929 10.1407L20.7215 10.6737L19.6059 6.94661C19.4539 6.44681 19.145 6.00925 18.7249 5.69873C18.3048 5.38822 17.7959 5.22127 17.2734 5.2226H14.9661L14.4339 3.60001H9.56612ZM6.72657 6.8452H17.2734C17.6345 6.8452 17.9549 7.08291 18.0596 7.42852L19.0989 10.9017H4.90115L5.94043 7.42852C6.0459 7.07966 6.36555 6.8452 6.72657 6.8452ZM4.41924 12.5243H19.5808L20.113 14.2994V19.0147H3.88703V14.2986L4.41924 12.5243ZM5.91528 13.3356C5.59252 13.3356 5.28299 13.4638 5.05476 13.692C4.82654 13.9202 4.69833 14.2298 4.69833 14.5525C4.69833 14.8753 4.82654 15.1848 5.05476 15.413C5.28299 15.6413 5.59252 15.7695 5.91528 15.7695C6.23803 15.7695 6.54757 15.6413 6.77579 15.413C7.00401 15.1848 7.13222 14.8753 7.13222 14.5525C7.13222 14.2298 7.00401 13.9202 6.77579 13.692C6.54757 13.4638 6.23803 13.3356 5.91528 13.3356ZM18.0847 13.3356C17.762 13.3356 17.4525 13.4638 17.2242 13.692C16.996 13.9202 16.8678 14.2298 16.8678 14.5525C16.8678 14.8753 16.996 15.1848 17.2242 15.413C17.4525 15.6413 17.762 15.7695 18.0847 15.7695C18.4075 15.7695 18.717 15.6413 18.9453 15.413C19.1735 15.1848 19.3017 14.8753 19.3017 14.5525C19.3017 14.2298 19.1735 13.9202 18.9453 13.692C18.717 13.4638 18.4075 13.3356 18.0847 13.3356ZM8.75482 15.7695L7.7407 18.2034H9.48986L9.8452 17.3921H14.1548L14.5102 18.2034H16.2593L15.2452 15.7695H8.75482Z" fill="#262626"/>
</svg>
