<svg width="29" height="24" viewBox="0 0 29 24" fill="none" xmlns="http://www.w3.org/2000/svg">
<mask id="path-1-outside-1" maskUnits="userSpaceOnUse" x="-0.5" y="0" width="30" height="24" fill="black">
<rect fill="white" x="-0.5" width="30" height="24"/>
<path fill-rule="evenodd" clip-rule="evenodd" d="M27.2464 13.2845L27.2537 13.2805L22.2158 4.94185C21.8237 4.33686 21.2433 3.87161 20.5913 3.60029L20.1646 2.46306C19.7808 1.43932 18.6975 0.84011 17.5896 1.03837C16.4805 1.23709 15.6748 2.20969 15.7153 3.28551L15.7225 5.10405C15.363 4.89494 14.9488 4.77161 14.5125 4.77161C14.0632 4.77161 13.6406 4.89672 13.2774 5.11281L13.2844 3.30069C13.3252 2.20969 12.5195 1.23709 11.4075 1.0379C10.3 0.838942 9.21924 1.43932 8.83521 2.46306L8.40771 3.60277C7.74652 3.88235 7.17258 4.34489 6.77783 4.95422L1.72778 13.3046L1.73502 13.3086C1.46661 13.66 1.23489 14.0383 1.04858 14.4418L1.04346 14.4395L1.04855 14.4419C0.698853 15.1992 0.5 16.0357 0.5 16.9178C0.5 20.2716 3.31274 23 6.77002 23C10.2249 23 13.0357 20.2756 13.0399 16.9252L13.0408 16.9253L13.0685 15.6391C13.4689 15.942 13.9661 16.1301 14.5125 16.1301C15.0481 16.1301 15.5369 15.9498 15.9333 15.6576L15.9603 16.9068L15.96 16.9118C15.9599 16.9138 15.9597 16.9158 15.9597 16.9178C15.9597 20.2716 18.7725 23 22.2297 23C25.6873 23 28.5 20.2716 28.5 16.9178C28.5 15.555 28.0299 14.2997 27.2464 13.2845ZM21.3579 5.43317L25.0066 11.4727C24.1683 11.0688 23.2276 10.8356 22.2297 10.8356C19.9725 10.8356 17.996 12.0025 16.8917 13.7434L16.7307 6.37238L16.7263 6.06647L16.7261 6.03278C16.727 5.51779 16.9761 5.04293 17.3894 4.76484C17.9226 4.4134 18.5439 4.22775 19.1858 4.22775C19.2563 4.22775 19.4038 4.24246 19.6218 4.28706C19.7583 4.31065 19.8811 4.34474 20.0229 4.40079C20.5737 4.58854 21.0508 4.95959 21.3579 5.43317ZM17.7766 1.97804C18.3977 1.86572 19.0061 2.20666 19.2231 2.78601L19.4112 3.28714C19.3302 3.27882 19.2502 3.27126 19.1858 3.27126C18.3403 3.27126 17.5229 3.51552 16.8181 3.97999C16.7965 3.99454 16.7763 4.01068 16.7561 4.02683L16.7561 4.02685C16.7436 4.03687 16.7311 4.04688 16.7182 4.05652L16.7151 3.26659C16.6919 2.6445 17.147 2.09083 17.7766 1.97804ZM11.2263 1.97851C11.853 2.09083 12.3081 2.6445 12.2847 3.28177L12.2816 4.05892C12.2684 4.04901 12.2555 4.03876 12.2427 4.0285L12.2427 4.02849C12.221 4.0112 12.1993 3.99392 12.176 3.97835C11.48 3.51576 10.6636 3.27126 9.81567 3.27126C9.75031 3.27126 9.66998 3.27868 9.58871 3.28705L9.77661 2.78601C9.99365 2.20642 10.6018 1.86572 11.2263 1.97851ZM7.63574 5.44578C7.95068 4.95959 8.42773 4.58854 9.00391 4.39145C9.12036 4.34474 9.24316 4.31065 9.396 4.28403C9.59766 4.24246 9.74512 4.22775 9.81567 4.22775C10.4587 4.22775 11.0776 4.41316 11.6042 4.76297C12.0204 5.04127 12.2687 5.51592 12.2738 6.05278L12.2737 6.07604H12.2755L12.1093 13.7449C11.0052 12.0032 9.02808 10.8356 6.77002 10.8356C5.77087 10.8356 4.82904 11.0694 3.9899 11.4743L7.63574 5.44578ZM6.77002 22.0435C3.86401 22.0435 1.5 19.7441 1.5 16.9178C1.5 14.0915 3.86401 11.7921 6.77002 11.7921C9.67603 11.7921 12.0403 14.0915 12.0403 16.9178C12.0403 19.7441 9.67603 22.0435 6.77002 22.0435ZM14.5125 15.1737C13.7629 15.1737 13.1533 14.5782 13.1533 13.8463C13.1533 13.1143 13.7629 12.5188 14.5125 12.5188C15.262 12.5188 15.8718 13.1143 15.8718 13.8463C15.8718 14.5782 15.262 15.1737 14.5125 15.1737ZM14.5125 11.5623C14.0028 11.5623 13.5335 11.7234 13.1473 11.9905L13.2652 6.53225C13.4802 6.04332 13.9652 5.7281 14.5125 5.7281C15.0366 5.7281 15.5113 6.02843 15.7355 6.48391L15.8539 11.9714C15.4724 11.7148 15.0111 11.5623 14.5125 11.5623ZM22.2297 22.0435C19.3237 22.0435 16.9597 19.7441 16.9597 16.9178C16.9597 16.9136 16.9604 16.9096 16.9604 16.9054H16.9607L16.9606 16.9009C16.9701 14.0825 19.3296 11.7921 22.2297 11.7921C25.1357 11.7921 27.5 14.0915 27.5 16.9178C27.5 19.7441 25.1357 22.0435 22.2297 22.0435ZM5.63634 13.4042C5.73617 13.7146 5.57627 14.0508 5.2792 14.1551C4.60513 14.3917 4.18549 14.8175 3.93486 15.4119C3.67329 16.0323 3.58248 16.8718 3.66372 17.9296C3.68879 18.256 3.45586 18.5418 3.14347 18.568C2.83108 18.5942 2.55751 18.3508 2.53244 18.0244C2.44379 16.8702 2.52785 15.8076 2.89628 14.9338C3.27566 14.0341 3.94114 13.3739 4.91769 13.031C5.21476 12.9267 5.53652 13.0938 5.63634 13.4042ZM24.0423 13.031C23.7452 12.9267 23.4235 13.0938 23.3237 13.4042C23.2238 13.7146 23.3837 14.0508 23.6808 14.1551C24.3553 14.3919 24.8212 14.8518 25.0934 15.4692C25.3709 16.0986 25.459 16.9229 25.3027 17.8769C25.2498 18.1996 25.4573 18.5061 25.7662 18.5614C26.0751 18.6166 26.3684 18.3998 26.4213 18.0771C26.6064 16.9479 26.5196 15.87 26.1242 14.9731C25.7235 14.0642 25.0184 13.3738 24.0423 13.031Z"/>
</mask>
<path fill-rule="evenodd" clip-rule="evenodd" d="M27.2464 13.2845L27.2537 13.2805L22.2158 4.94185C21.8237 4.33686 21.2433 3.87161 20.5913 3.60029L20.1646 2.46306C19.7808 1.43932 18.6975 0.84011 17.5896 1.03837C16.4805 1.23709 15.6748 2.20969 15.7153 3.28551L15.7225 5.10405C15.363 4.89494 14.9488 4.77161 14.5125 4.77161C14.0632 4.77161 13.6406 4.89672 13.2774 5.11281L13.2844 3.30069C13.3252 2.20969 12.5195 1.23709 11.4075 1.0379C10.3 0.838942 9.21924 1.43932 8.83521 2.46306L8.40771 3.60277C7.74652 3.88235 7.17258 4.34489 6.77783 4.95422L1.72778 13.3046L1.73502 13.3086C1.46661 13.66 1.23489 14.0383 1.04858 14.4418L1.04346 14.4395L1.04855 14.4419C0.698853 15.1992 0.5 16.0357 0.5 16.9178C0.5 20.2716 3.31274 23 6.77002 23C10.2249 23 13.0357 20.2756 13.0399 16.9252L13.0408 16.9253L13.0685 15.6391C13.4689 15.942 13.9661 16.1301 14.5125 16.1301C15.0481 16.1301 15.5369 15.9498 15.9333 15.6576L15.9603 16.9068L15.96 16.9118C15.9599 16.9138 15.9597 16.9158 15.9597 16.9178C15.9597 20.2716 18.7725 23 22.2297 23C25.6873 23 28.5 20.2716 28.5 16.9178C28.5 15.555 28.0299 14.2997 27.2464 13.2845ZM21.3579 5.43317L25.0066 11.4727C24.1683 11.0688 23.2276 10.8356 22.2297 10.8356C19.9725 10.8356 17.996 12.0025 16.8917 13.7434L16.7307 6.37238L16.7263 6.06647L16.7261 6.03278C16.727 5.51779 16.9761 5.04293 17.3894 4.76484C17.9226 4.4134 18.5439 4.22775 19.1858 4.22775C19.2563 4.22775 19.4038 4.24246 19.6218 4.28706C19.7583 4.31065 19.8811 4.34474 20.0229 4.40079C20.5737 4.58854 21.0508 4.95959 21.3579 5.43317ZM17.7766 1.97804C18.3977 1.86572 19.0061 2.20666 19.2231 2.78601L19.4112 3.28714C19.3302 3.27882 19.2502 3.27126 19.1858 3.27126C18.3403 3.27126 17.5229 3.51552 16.8181 3.97999C16.7965 3.99454 16.7763 4.01068 16.7561 4.02683L16.7561 4.02685C16.7436 4.03687 16.7311 4.04688 16.7182 4.05652L16.7151 3.26659C16.6919 2.6445 17.147 2.09083 17.7766 1.97804ZM11.2263 1.97851C11.853 2.09083 12.3081 2.6445 12.2847 3.28177L12.2816 4.05892C12.2684 4.04901 12.2555 4.03876 12.2427 4.0285L12.2427 4.02849C12.221 4.0112 12.1993 3.99392 12.176 3.97835C11.48 3.51576 10.6636 3.27126 9.81567 3.27126C9.75031 3.27126 9.66998 3.27868 9.58871 3.28705L9.77661 2.78601C9.99365 2.20642 10.6018 1.86572 11.2263 1.97851ZM7.63574 5.44578C7.95068 4.95959 8.42773 4.58854 9.00391 4.39145C9.12036 4.34474 9.24316 4.31065 9.396 4.28403C9.59766 4.24246 9.74512 4.22775 9.81567 4.22775C10.4587 4.22775 11.0776 4.41316 11.6042 4.76297C12.0204 5.04127 12.2687 5.51592 12.2738 6.05278L12.2737 6.07604H12.2755L12.1093 13.7449C11.0052 12.0032 9.02808 10.8356 6.77002 10.8356C5.77087 10.8356 4.82904 11.0694 3.9899 11.4743L7.63574 5.44578ZM6.77002 22.0435C3.86401 22.0435 1.5 19.7441 1.5 16.9178C1.5 14.0915 3.86401 11.7921 6.77002 11.7921C9.67603 11.7921 12.0403 14.0915 12.0403 16.9178C12.0403 19.7441 9.67603 22.0435 6.77002 22.0435ZM14.5125 15.1737C13.7629 15.1737 13.1533 14.5782 13.1533 13.8463C13.1533 13.1143 13.7629 12.5188 14.5125 12.5188C15.262 12.5188 15.8718 13.1143 15.8718 13.8463C15.8718 14.5782 15.262 15.1737 14.5125 15.1737ZM14.5125 11.5623C14.0028 11.5623 13.5335 11.7234 13.1473 11.9905L13.2652 6.53225C13.4802 6.04332 13.9652 5.7281 14.5125 5.7281C15.0366 5.7281 15.5113 6.02843 15.7355 6.48391L15.8539 11.9714C15.4724 11.7148 15.0111 11.5623 14.5125 11.5623ZM22.2297 22.0435C19.3237 22.0435 16.9597 19.7441 16.9597 16.9178C16.9597 16.9136 16.9604 16.9096 16.9604 16.9054H16.9607L16.9606 16.9009C16.9701 14.0825 19.3296 11.7921 22.2297 11.7921C25.1357 11.7921 27.5 14.0915 27.5 16.9178C27.5 19.7441 25.1357 22.0435 22.2297 22.0435ZM5.63634 13.4042C5.73617 13.7146 5.57627 14.0508 5.2792 14.1551C4.60513 14.3917 4.18549 14.8175 3.93486 15.4119C3.67329 16.0323 3.58248 16.8718 3.66372 17.9296C3.68879 18.256 3.45586 18.5418 3.14347 18.568C2.83108 18.5942 2.55751 18.3508 2.53244 18.0244C2.44379 16.8702 2.52785 15.8076 2.89628 14.9338C3.27566 14.0341 3.94114 13.3739 4.91769 13.031C5.21476 12.9267 5.53652 13.0938 5.63634 13.4042ZM24.0423 13.031C23.7452 12.9267 23.4235 13.0938 23.3237 13.4042C23.2238 13.7146 23.3837 14.0508 23.6808 14.1551C24.3553 14.3919 24.8212 14.8518 25.0934 15.4692C25.3709 16.0986 25.459 16.9229 25.3027 17.8769C25.2498 18.1996 25.4573 18.5061 25.7662 18.5614C26.0751 18.6166 26.3684 18.3998 26.4213 18.0771C26.6064 16.9479 26.5196 15.87 26.1242 14.9731C25.7235 14.0642 25.0184 13.3738 24.0423 13.031Z" fill="#434343"/>
<path d="M27.2537 13.2805L27.3504 13.4556C27.398 13.4293 27.4328 13.3847 27.4469 13.3322C27.4609 13.2796 27.453 13.2237 27.4248 13.1771L27.2537 13.2805ZM27.2464 13.2845L27.1497 13.1095C27.0986 13.1377 27.0624 13.1868 27.0506 13.2439C27.0388 13.3011 27.0525 13.3605 27.0881 13.4067L27.2464 13.2845ZM22.2158 4.94185L22.3871 4.83837L22.3837 4.83307L22.2158 4.94185ZM20.5913 3.60029L20.4041 3.67056C20.4235 3.7223 20.4635 3.7637 20.5145 3.78494L20.5913 3.60029ZM20.1646 2.46306L19.9773 2.53326L19.9773 2.53333L20.1646 2.46306ZM17.5896 1.03837L17.5544 0.841494L17.5543 0.841501L17.5896 1.03837ZM15.7153 3.28551L15.9154 3.28472L15.9152 3.27798L15.7153 3.28551ZM15.7225 5.10405L15.6219 5.27693C15.6839 5.31299 15.7604 5.3131 15.8225 5.27723C15.8846 5.24135 15.9228 5.17498 15.9225 5.10327L15.7225 5.10405ZM13.2774 5.11281L13.0774 5.11204C13.0771 5.1841 13.1156 5.25074 13.1782 5.28648C13.2408 5.32222 13.3177 5.32153 13.3797 5.28469L13.2774 5.11281ZM13.2844 3.30069L13.0845 3.29321L13.0844 3.29991L13.2844 3.30069ZM11.4075 1.0379L11.3721 1.23475L11.3722 1.23477L11.4075 1.0379ZM8.83521 2.46306L8.64795 2.39281L8.64794 2.39282L8.83521 2.46306ZM8.40771 3.60277L8.48561 3.78698C8.53616 3.7656 8.5757 3.7244 8.59498 3.67301L8.40771 3.60277ZM6.77783 4.95422L6.6099 4.84543L6.60669 4.85073L6.77783 4.95422ZM1.72778 13.3046L1.55665 13.2011C1.5285 13.2476 1.52052 13.3036 1.53455 13.3562C1.54858 13.4087 1.5834 13.4533 1.631 13.4796L1.72778 13.3046ZM1.73502 13.3086L1.89395 13.43C1.92926 13.3838 1.94269 13.3245 1.93076 13.2675C1.91882 13.2106 1.8827 13.1617 1.8318 13.1336L1.73502 13.3086ZM1.04858 14.4418L0.965673 14.6238C1.06583 14.6694 1.18402 14.6256 1.23016 14.5257L1.04858 14.4418ZM1.04346 14.4395L1.12637 14.2575C1.02643 14.2119 0.908481 14.2555 0.862138 14.3551C0.815795 14.4546 0.858397 14.5729 0.957574 14.6201L1.04346 14.4395ZM1.04855 14.4419L1.23013 14.5257C1.27607 14.4263 1.2334 14.3083 1.13444 14.2613L1.04855 14.4419ZM13.0399 16.9252L13.0466 16.7254C12.9924 16.7235 12.9399 16.7438 12.9009 16.7814C12.862 16.819 12.84 16.8708 12.8399 16.925L13.0399 16.9252ZM13.0408 16.9253L13.0341 17.1252C13.0875 17.1269 13.1394 17.1073 13.1783 17.0705C13.2171 17.0338 13.2396 16.983 13.2407 16.9296L13.0408 16.9253ZM13.0685 15.6391L13.1892 15.4796C13.1293 15.4342 13.0491 15.4263 12.9814 15.459C12.9138 15.4918 12.8702 15.5596 12.8686 15.6347L13.0685 15.6391ZM15.9333 15.6576L16.1333 15.6533C16.1317 15.5786 16.0886 15.5111 16.0216 15.4781C15.9546 15.4452 15.8748 15.4523 15.8147 15.4966L15.9333 15.6576ZM15.9603 16.9068L16.16 16.9168C16.1603 16.912 16.1604 16.9073 16.1602 16.9025L15.9603 16.9068ZM15.96 16.9118L16.1595 16.9275L16.1598 16.9218L15.96 16.9118ZM25.0066 11.4727L24.9198 11.6529C24.9995 11.6913 25.095 11.6728 25.1545 11.6073C25.2141 11.5419 25.2235 11.445 25.1778 11.3693L25.0066 11.4727ZM21.3579 5.43317L21.5292 5.3297L21.5257 5.32434L21.3579 5.43317ZM16.8917 13.7434L16.6917 13.7478C16.6936 13.8359 16.7531 13.9124 16.838 13.9361C16.9229 13.9597 17.0133 13.925 17.0605 13.8505L16.8917 13.7434ZM16.7307 6.37238L16.5307 6.37527L16.5308 6.37674L16.7307 6.37238ZM16.7263 6.06647L16.5263 6.06737L16.5263 6.06936L16.7263 6.06647ZM16.7261 6.03278L16.5261 6.03245L16.5261 6.03369L16.7261 6.03278ZM17.3894 4.76484L17.2793 4.59784L17.2778 4.5989L17.3894 4.76484ZM19.6218 4.28706L19.5817 4.4831L19.5878 4.48414L19.6218 4.28706ZM20.0229 4.40079L19.9494 4.58701L19.9584 4.59009L20.0229 4.40079ZM19.2231 2.78601L19.0359 2.85618L19.0359 2.85627L19.2231 2.78601ZM17.7766 1.97804L17.8119 2.17491L17.8122 2.17485L17.7766 1.97804ZM19.4112 3.28714L19.3907 3.48609C19.4596 3.49317 19.5272 3.46413 19.5695 3.40931C19.6118 3.35449 19.6227 3.28171 19.5984 3.21689L19.4112 3.28714ZM16.8181 3.97999L16.7081 3.81298L16.7066 3.81399L16.8181 3.97999ZM16.7561 4.02683L16.6311 3.87072L16.63 3.8716L16.7561 4.02683ZM16.7561 4.02685L16.8811 4.18297L16.8822 4.18208L16.7561 4.02685ZM16.7182 4.05652L16.5182 4.05732C16.5185 4.13291 16.5614 4.20187 16.6291 4.23556C16.6968 4.26925 16.7776 4.26191 16.8381 4.2166L16.7182 4.05652ZM16.7151 3.26659L16.9152 3.2658L16.9149 3.25914L16.7151 3.26659ZM12.2847 3.28177L12.0847 3.27442L12.0847 3.28099L12.2847 3.28177ZM11.2263 1.97851L11.1908 2.17532L11.191 2.17537L11.2263 1.97851ZM12.2816 4.05892L12.1616 4.21893C12.2221 4.26429 12.303 4.27166 12.3707 4.23797C12.4384 4.20429 12.4813 4.13531 12.4816 4.0597L12.2816 4.05892ZM12.2427 4.0285L12.1131 4.18096L12.118 4.18488L12.2427 4.0285ZM12.2427 4.02849L12.3723 3.87602L12.3673 3.8721L12.2427 4.02849ZM12.176 3.97835L12.2872 3.81209L12.2867 3.81179L12.176 3.97835ZM9.58871 3.28705L9.40145 3.21683C9.37714 3.28166 9.38809 3.35445 9.43039 3.40926C9.4727 3.46407 9.54035 3.4931 9.60922 3.486L9.58871 3.28705ZM9.77661 2.78601L9.96388 2.85624L9.96391 2.85615L9.77661 2.78601ZM9.00391 4.39145L9.06872 4.58094L9.07835 4.57707L9.00391 4.39145ZM7.63574 5.44578L7.4678 5.33699L7.4646 5.34228L7.63574 5.44578ZM9.396 4.28403L9.43033 4.48116L9.43637 4.47991L9.396 4.28403ZM11.6042 4.76297L11.7154 4.59672L11.7149 4.59638L11.6042 4.76297ZM12.2738 6.05278L12.4738 6.05357L12.4738 6.0509L12.2738 6.05278ZM12.2737 6.07604L12.0737 6.07526C12.0735 6.12844 12.0945 6.17951 12.132 6.21719C12.1695 6.25486 12.2205 6.27604 12.2737 6.27604V6.07604ZM12.2755 6.07604L12.4754 6.08038C12.4766 6.02659 12.4561 5.97461 12.4184 5.93616C12.3808 5.89771 12.3293 5.87604 12.2755 5.87604V6.07604ZM12.1093 13.7449L11.9404 13.852C11.9876 13.9264 12.078 13.9612 12.163 13.9375C12.2479 13.9139 12.3073 13.8374 12.3092 13.7492L12.1093 13.7449ZM3.9899 11.4743L3.81876 11.3708C3.77295 11.4466 3.78239 11.5434 3.84197 11.6089C3.90155 11.6744 3.99709 11.6929 4.07683 11.6544L3.9899 11.4743ZM13.1473 11.9905L12.9474 11.9862C12.9458 12.0613 12.9864 12.131 13.0526 12.1666C13.1188 12.2023 13.1993 12.1978 13.2611 12.155L13.1473 11.9905ZM13.2652 6.53225L13.0821 6.45174C13.0716 6.47578 13.0658 6.50167 13.0653 6.52793L13.2652 6.53225ZM15.7355 6.48391L15.9355 6.4796C15.9348 6.45044 15.9278 6.42176 15.9149 6.39559L15.7355 6.48391ZM15.8539 11.9714L15.7422 12.1373C15.8042 12.179 15.8842 12.1827 15.9498 12.1469C16.0153 12.1111 16.0554 12.0418 16.0538 11.9671L15.8539 11.9714ZM16.9604 16.9054V16.7054C16.8499 16.7054 16.7604 16.795 16.7604 16.9054H16.9604ZM16.9607 16.9054V17.1054C17.0144 17.1054 17.0659 17.0838 17.1035 17.0454C17.1412 17.007 17.1617 16.9551 17.1607 16.9014L16.9607 16.9054ZM16.9606 16.9009L16.7605 16.9003L16.7606 16.905L16.9606 16.9009ZM5.2792 14.1551L5.34546 14.3438H5.34546L5.2792 14.1551ZM5.63634 13.4042L5.44595 13.4654L5.44595 13.4654L5.63634 13.4042ZM3.93486 15.4119L4.11915 15.4896L3.93486 15.4119ZM3.66372 17.9296L3.4643 17.9449L3.66372 17.9296ZM3.14347 18.568L3.12676 18.3687H3.12676L3.14347 18.568ZM2.53244 18.0244L2.33303 18.0397L2.53244 18.0244ZM2.89628 14.9338L2.71199 14.8561V14.8561L2.89628 14.9338ZM4.91769 13.031L4.85144 12.8423L4.91769 13.031ZM23.3237 13.4042L23.5141 13.4654L23.3237 13.4042ZM24.0423 13.031L23.9761 13.2198L24.0423 13.031ZM23.6808 14.1551L23.6145 14.3438L23.6808 14.1551ZM25.0934 15.4692L24.9104 15.5499V15.5499L25.0934 15.4692ZM25.3027 17.8769L25.5 17.9093V17.9092L25.3027 17.8769ZM25.7662 18.5614L25.8014 18.3645L25.7662 18.5614ZM26.4213 18.0771L26.6187 18.1094V18.1094L26.4213 18.0771ZM26.1242 14.9731L25.9412 15.0538L26.1242 14.9731ZM27.1569 13.1055L27.1497 13.1095L27.3432 13.4596L27.3504 13.4556L27.1569 13.1055ZM22.0446 5.04527L27.0825 13.384L27.4248 13.1771L22.387 4.83843L22.0446 5.04527ZM20.5145 3.78494C21.1314 4.04166 21.6791 4.48151 22.048 5.05063L22.3837 4.83307C21.9683 4.19221 21.3552 3.70155 20.6682 3.41564L20.5145 3.78494ZM19.9773 2.53333L20.4041 3.67056L20.7786 3.53002L20.3518 2.39279L19.9773 2.53333ZM17.6248 1.23524C18.6419 1.05323 19.6288 1.60384 19.9773 2.53326L20.3518 2.39285C19.9327 1.27479 18.7531 0.626985 17.5544 0.841494L17.6248 1.23524ZM15.9152 3.27798C15.8786 2.30747 16.6082 1.41739 17.6249 1.23523L17.5543 0.841501C16.3528 1.05679 15.471 2.11191 15.5155 3.29304L15.9152 3.27798ZM15.9225 5.10327L15.9153 3.28472L15.5153 3.28629L15.5225 5.10484L15.9225 5.10327ZM14.5125 4.97161C14.9107 4.97161 15.2905 5.08415 15.6219 5.27693L15.823 4.93118C15.4355 4.70573 14.9869 4.57161 14.5125 4.57161V4.97161ZM13.3797 5.28469C13.7133 5.08617 14.1008 4.97161 14.5125 4.97161V4.57161C14.0256 4.57161 13.5678 4.70727 13.1751 4.94094L13.3797 5.28469ZM13.0844 3.29991L13.0774 5.11204L13.4774 5.11359L13.4844 3.30146L13.0844 3.29991ZM11.3722 1.23477C12.3911 1.41727 13.1214 2.30679 13.0846 3.29322L13.4843 3.30815C13.529 2.11259 12.648 1.05691 11.4427 0.841033L11.3722 1.23477ZM9.02246 2.5333C9.37127 1.60346 10.356 1.0522 11.3721 1.23475L11.4428 0.841051C10.2441 0.625687 9.0672 1.27517 8.64795 2.39281L9.02246 2.5333ZM8.59498 3.67301L9.02247 2.5333L8.64794 2.39282L8.22045 3.53253L8.59498 3.67301ZM6.94569 5.06297C7.31728 4.48937 7.85885 4.052 8.48561 3.78698L8.32982 3.41856C7.6342 3.7127 7.02787 4.20041 6.60998 4.84548L6.94569 5.06297ZM1.89892 13.4081L6.94897 5.05772L6.60669 4.85073L1.55665 13.2011L1.89892 13.4081ZM1.8318 13.1336L1.82457 13.1296L1.631 13.4796L1.63823 13.4836L1.8318 13.1336ZM1.23016 14.5257C1.40995 14.1363 1.63389 13.7705 1.89395 13.43L1.57608 13.1872C1.29934 13.5495 1.05984 13.9403 0.867007 14.358L1.23016 14.5257ZM0.960546 14.6215L0.965673 14.6238L1.1315 14.2598L1.12637 14.2575L0.960546 14.6215ZM1.13444 14.2613L1.12934 14.2589L0.957574 14.6201L0.96267 14.6225L1.13444 14.2613ZM0.7 16.9178C0.7 16.0662 0.891915 15.2582 1.23013 14.5257L0.866978 14.3581C0.50579 15.1402 0.3 16.0052 0.3 16.9178H0.7ZM6.77002 22.8C3.41742 22.8 0.7 20.1554 0.7 16.9178H0.3C0.3 20.3877 3.20807 23.2 6.77002 23.2V22.8ZM12.8399 16.925C12.8358 20.1593 10.1203 22.8 6.77002 22.8V23.2C10.3296 23.2 13.2355 20.3918 13.2399 16.9255L12.8399 16.925ZM13.0474 16.7254L13.0466 16.7254L13.0332 17.1251L13.0341 17.1252L13.0474 16.7254ZM12.8686 15.6347L12.8408 16.921L13.2407 16.9296L13.2685 15.6434L12.8686 15.6347ZM14.5125 15.9301C14.0132 15.9301 13.5577 15.7584 13.1892 15.4796L12.9479 15.7985C13.3801 16.1256 13.919 16.3301 14.5125 16.3301V15.9301ZM15.8147 15.4966C15.4499 15.7655 15.0022 15.9301 14.5125 15.9301V16.3301C15.0941 16.3301 15.6239 16.1341 16.052 15.8186L15.8147 15.4966ZM16.1602 16.9025L16.1333 15.6533L15.7334 15.6619L15.7603 16.9111L16.1602 16.9025ZM16.1598 16.9218L16.16 16.9168L15.7605 16.8968L15.7603 16.9018L16.1598 16.9218ZM16.1597 16.9178C16.1597 16.9224 16.1595 16.9259 16.1594 16.9274C16.1594 16.9284 16.1593 16.9297 16.1594 16.9275L15.7607 16.8961C15.7607 16.8962 15.7606 16.8963 15.7606 16.8967C15.7606 16.897 15.7606 16.8974 15.7605 16.8979C15.7604 16.8989 15.7603 16.9004 15.7602 16.9022C15.76 16.9057 15.7597 16.9112 15.7597 16.9178H16.1597ZM22.2297 22.8C18.8771 22.8 16.1597 20.1554 16.1597 16.9178H15.7597C15.7597 20.3877 18.6678 23.2 22.2297 23.2V22.8ZM28.3 16.9178C28.3 20.1554 25.5826 22.8 22.2297 22.8V23.2C25.7919 23.2 28.7 20.3877 28.7 16.9178H28.3ZM27.0881 13.4067C27.8463 14.3892 28.3 15.6021 28.3 16.9178H28.7C28.7 15.5079 28.2134 14.2102 27.4048 13.1623L27.0881 13.4067ZM25.1778 11.3693L21.5291 5.32975L21.1867 5.53659L24.8354 11.5761L25.1778 11.3693ZM22.2297 11.0356C23.1961 11.0356 24.1072 11.2613 24.9198 11.6529L25.0934 11.2925C24.2294 10.8762 23.2591 10.6356 22.2297 10.6356V11.0356ZM17.0605 13.8505C18.1291 12.1661 20.0426 11.0356 22.2297 11.0356V10.6356C19.9023 10.6356 17.8629 11.839 16.7228 13.6363L17.0605 13.8505ZM16.5308 6.37674L16.6917 13.7478L17.0916 13.739L16.9307 6.36801L16.5308 6.37674ZM16.5263 6.06936L16.5307 6.37527L16.9307 6.36948L16.9263 6.06358L16.5263 6.06936ZM16.5261 6.03369L16.5263 6.06737L16.9263 6.06556L16.9261 6.03188L16.5261 6.03369ZM17.2778 4.5989C16.8073 4.9154 16.5271 5.45339 16.5261 6.03245L16.9261 6.03312C16.9269 5.58219 17.1448 5.17046 17.501 4.93078L17.2778 4.5989ZM19.1858 4.02775C18.5051 4.02775 17.8454 4.22474 17.2793 4.59785L17.4995 4.93183C17.9998 4.60206 18.5828 4.42775 19.1858 4.42775V4.02775ZM19.6619 4.09112C19.4382 4.04535 19.2757 4.02775 19.1858 4.02775V4.42775C19.237 4.42775 19.3694 4.43957 19.5817 4.48301L19.6619 4.09112ZM20.0964 4.21478C19.9422 4.15383 19.8062 4.11596 19.6559 4.08999L19.5878 4.48414C19.7104 4.50534 19.82 4.53565 19.9495 4.58679L20.0964 4.21478ZM21.5257 5.32434C21.1937 4.81241 20.6799 4.41344 20.0875 4.21148L19.9584 4.59009C20.4675 4.76363 20.9079 5.10677 21.1901 5.54199L21.5257 5.32434ZM19.4104 2.71585C19.1586 2.04371 18.4549 1.65214 17.741 1.78123L17.8122 2.17485C18.3405 2.0793 18.8536 2.3696 19.0359 2.85618L19.4104 2.71585ZM19.5984 3.21689L19.4104 2.71576L19.0359 2.85627L19.2239 3.3574L19.5984 3.21689ZM19.1858 3.47126C19.2383 3.47126 19.3081 3.47761 19.3907 3.48609L19.4316 3.08819C19.3523 3.08004 19.2622 3.07126 19.1858 3.07126V3.47126ZM16.9282 4.14699C17.6002 3.70414 18.3793 3.47126 19.1858 3.47126V3.07126C18.3014 3.07126 17.4457 3.3269 16.7081 3.81299L16.9282 4.14699ZM16.8812 4.18293C16.9024 4.16596 16.9161 4.15511 16.9297 4.14599L16.7066 3.81399C16.6768 3.83397 16.6502 3.85541 16.6311 3.87072L16.8812 4.18293ZM16.8822 4.18208L16.8823 4.18205L16.63 3.8716L16.63 3.87163L16.8822 4.18208ZM16.8381 4.2166C16.854 4.2047 16.869 4.19265 16.8811 4.18297L16.6311 3.87074C16.6182 3.88109 16.6082 3.88907 16.5983 3.89645L16.8381 4.2166ZM16.5151 3.26739L16.5182 4.05732L16.9182 4.05573L16.9151 3.2658L16.5151 3.26739ZM17.7413 1.78118C17.0173 1.91087 16.4882 2.54862 16.5152 3.27404L16.9149 3.25914C16.8956 2.74038 17.2766 2.27079 17.8119 2.17491L17.7413 1.78118ZM12.4845 3.28912C12.5117 2.55036 11.9845 1.9112 11.2616 1.78165L11.191 2.17537C11.7216 2.27046 12.1045 2.73864 12.0848 3.27442L12.4845 3.28912ZM12.4816 4.0597L12.4847 3.28256L12.0847 3.28099L12.0816 4.05813L12.4816 4.0597ZM12.118 4.18488C12.1305 4.19483 12.1457 4.20695 12.1616 4.21893L12.4016 3.89891C12.3912 3.89108 12.3806 3.88268 12.3674 3.87212L12.118 4.18488ZM12.1131 4.18087L12.1131 4.18089L12.3722 3.87611L12.3722 3.8761L12.1131 4.18087ZM12.0649 4.14461C12.08 4.15476 12.0953 4.16675 12.118 4.18487L12.3673 3.8721C12.3467 3.85565 12.3186 3.83308 12.2872 3.81209L12.0649 4.14461ZM9.81567 3.47126C10.6248 3.47126 11.4026 3.70447 12.0653 4.14492L12.2867 3.81179C11.5574 3.32704 10.7023 3.07126 9.81567 3.07126V3.47126ZM9.60922 3.486C9.69155 3.47751 9.76207 3.47126 9.81567 3.47126V3.07126C9.73854 3.07126 9.64842 3.07984 9.56821 3.08811L9.60922 3.486ZM9.58935 2.71579L9.40145 3.21683L9.77598 3.35728L9.96388 2.85624L9.58935 2.71579ZM11.2619 1.78169C10.545 1.65222 9.84122 2.04317 9.58931 2.71587L9.96391 2.85615C10.1461 2.36967 10.6587 2.07922 11.1908 2.17532L11.2619 1.78169ZM8.93918 4.20221C8.32193 4.41335 7.80797 4.81204 7.46788 5.33704L7.8036 5.55451C8.09339 5.10715 8.53354 4.76372 9.06864 4.58068L8.93918 4.20221ZM9.36168 4.087C9.19751 4.11559 9.06094 4.15309 8.92946 4.20582L9.07835 4.57707C9.17979 4.53639 9.28882 4.50571 9.43032 4.48106L9.36168 4.087ZM9.81567 4.02775C9.72611 4.02775 9.56388 4.04522 9.35562 4.08815L9.43637 4.47991C9.63143 4.43971 9.76413 4.42775 9.81567 4.42775V4.02775ZM11.7149 4.59638C11.155 4.22443 10.4975 4.02775 9.81567 4.02775V4.42775C10.42 4.42775 11.0003 4.6019 11.4936 4.92957L11.7149 4.59638ZM12.4738 6.0509C12.4682 5.45274 12.1904 4.91436 11.7154 4.59672L11.4931 4.92922C11.8504 5.16818 12.0693 5.5791 12.0738 6.05465L12.4738 6.0509ZM12.4737 6.07683L12.4738 6.05357L12.0738 6.05199L12.0737 6.07526L12.4737 6.07683ZM12.2755 5.87604H12.2737V6.27604H12.2755V5.87604ZM12.3092 13.7492L12.4754 6.08038L12.0755 6.07171L11.9093 13.7405L12.3092 13.7492ZM6.77002 11.0356C8.95791 11.0356 10.872 12.1668 11.9404 13.852L12.2782 13.6378C11.1383 11.8397 9.09824 10.6356 6.77002 10.6356V11.0356ZM4.07683 11.6544C4.89021 11.2619 5.80245 11.0356 6.77002 11.0356V10.6356C5.7393 10.6356 4.76787 10.8768 3.90297 11.2942L4.07683 11.6544ZM7.4646 5.34228L3.81876 11.3708L4.16104 11.5778L7.80688 5.54928L7.4646 5.34228ZM1.3 16.9178C1.3 19.8597 3.75882 22.2435 6.77002 22.2435V21.8435C3.9692 21.8435 1.7 19.6284 1.7 16.9178H1.3ZM6.77002 11.5921C3.75882 11.5921 1.3 13.9759 1.3 16.9178H1.7C1.7 14.2072 3.9692 11.9921 6.77002 11.9921V11.5921ZM12.2403 16.9178C12.2403 13.9759 9.7812 11.5921 6.77002 11.5921V11.9921C9.57085 11.9921 11.8403 14.2072 11.8403 16.9178H12.2403ZM6.77002 22.2435C9.7812 22.2435 12.2403 19.8597 12.2403 16.9178H11.8403C11.8403 19.6284 9.57085 21.8435 6.77002 21.8435V22.2435ZM12.9533 13.8463C12.9533 14.6931 13.657 15.3737 14.5125 15.3737V14.9737C13.8689 14.9737 13.3533 14.4633 13.3533 13.8463H12.9533ZM14.5125 12.3188C13.6569 12.3188 12.9533 12.9994 12.9533 13.8463H13.3533C13.3533 13.2291 13.8689 12.7188 14.5125 12.7188V12.3188ZM16.0718 13.8463C16.0718 12.9994 15.3679 12.3188 14.5125 12.3188V12.7188C15.156 12.7188 15.6718 13.2292 15.6718 13.8463H16.0718ZM14.5125 15.3737C15.3679 15.3737 16.0718 14.6931 16.0718 13.8463H15.6718C15.6718 14.4633 15.156 14.9737 14.5125 14.9737V15.3737ZM13.2611 12.155C13.6158 11.9097 14.0457 11.7623 14.5125 11.7623V11.3623C13.9598 11.3623 13.4512 11.5371 13.0336 11.826L13.2611 12.155ZM13.0653 6.52793L12.9474 11.9862L13.3473 11.9948L13.4652 6.53657L13.0653 6.52793ZM14.5125 5.5281C13.8873 5.5281 13.3297 5.88888 13.0821 6.45174L13.4483 6.61275C13.6308 6.19776 14.0431 5.9281 14.5125 5.9281V5.5281ZM15.9149 6.39559C15.6571 5.87168 15.1127 5.5281 14.5125 5.5281V5.9281C14.9604 5.9281 15.3656 6.18519 15.5561 6.57223L15.9149 6.39559ZM16.0538 11.9671L15.9355 6.4796L15.5356 6.48822L15.6539 11.9757L16.0538 11.9671ZM14.5125 11.7623C14.9697 11.7623 15.3924 11.902 15.7422 12.1373L15.9655 11.8054C15.5524 11.5276 15.0525 11.3623 14.5125 11.3623V11.7623ZM16.7597 16.9178C16.7597 19.8597 19.2185 22.2435 22.2297 22.2435V21.8435C19.4289 21.8435 17.1597 19.6284 17.1597 16.9178H16.7597ZM16.7604 16.9054C16.7604 16.9014 16.7605 16.8984 16.7606 16.8969C16.7607 16.8956 16.7607 16.8947 16.7606 16.896C16.7606 16.8967 16.7604 16.8997 16.7602 16.903C16.7599 16.9066 16.7597 16.9117 16.7597 16.9178H17.1597C17.1597 16.9218 17.1596 16.9248 17.1595 16.9263C17.1594 16.9276 17.1593 16.9285 17.1594 16.9272C17.1595 16.9265 17.1597 16.9235 17.1599 16.9202C17.1601 16.9166 17.1604 16.9115 17.1604 16.9054H16.7604ZM16.9607 16.7054H16.9604V17.1054H16.9607V16.7054ZM16.7606 16.905L16.7607 16.9095L17.1607 16.9014L17.1606 16.8969L16.7606 16.905ZM22.2297 11.5921C19.2245 11.5921 16.7705 13.9665 16.7606 16.9003L17.1606 16.9016C17.1697 14.1984 19.4346 11.9921 22.2297 11.9921V11.5921ZM27.7 16.9178C27.7 13.9759 25.2409 11.5921 22.2297 11.5921V11.9921C25.0306 11.9921 27.3 14.2072 27.3 16.9178H27.7ZM22.2297 22.2435C25.2409 22.2435 27.7 19.8597 27.7 16.9178H27.3C27.3 19.6284 25.0306 21.8435 22.2297 21.8435V22.2435ZM5.34546 14.3438C5.75073 14.2015 5.9578 13.7505 5.82674 13.343L5.44595 13.4654C5.51455 13.6787 5.40182 13.9001 5.21295 13.9664L5.34546 14.3438ZM4.11915 15.4896C4.34866 14.9453 4.72656 14.5611 5.34546 14.3438L5.21295 13.9664C4.4837 14.2224 4.02232 14.6898 3.75058 15.3342L4.11915 15.4896ZM3.86313 17.9142C3.78307 16.8719 3.87505 16.0685 4.11915 15.4896L3.75058 15.3342C3.47153 15.996 3.38188 16.8717 3.4643 17.9449L3.86313 17.9142ZM3.16018 18.7673C3.59006 18.7312 3.89599 18.3421 3.86313 17.9142L3.4643 17.9449C3.48158 18.1698 3.32167 18.3523 3.12676 18.3687L3.16018 18.7673ZM2.33303 18.0397C2.36596 18.4685 2.72904 18.8034 3.16018 18.7673L3.12676 18.3687C2.93311 18.3849 2.74906 18.2331 2.73185 18.0091L2.33303 18.0397ZM2.71199 14.8561C2.32609 15.7713 2.24319 16.8701 2.33303 18.0397L2.73185 18.0091C2.64439 16.8703 2.72961 15.8438 3.08057 15.0115L2.71199 14.8561ZM4.85144 12.8423C3.81971 13.2046 3.11248 13.9063 2.71199 14.8561L3.08057 15.0115C3.43883 14.1619 4.06258 13.5433 4.98395 13.2198L4.85144 12.8423ZM5.82674 13.343C5.69457 12.932 5.2611 12.6985 4.85144 12.8423L4.98395 13.2198C5.16843 13.155 5.37846 13.2556 5.44595 13.4654L5.82674 13.343ZM23.5141 13.4654C23.5815 13.2556 23.7916 13.155 23.9761 13.2198L24.1086 12.8423C23.6989 12.6985 23.2654 12.932 23.1333 13.343L23.5141 13.4654ZM23.7471 13.9664C23.5582 13.9001 23.4455 13.6787 23.5141 13.4654L23.1333 13.343C23.0022 13.7505 23.2093 14.2015 23.6145 14.3438L23.7471 13.9664ZM25.2764 15.3885C24.9831 14.7232 24.4765 14.2225 23.7471 13.9664L23.6145 14.3438C24.2341 14.5613 24.6593 14.9803 24.9104 15.5499L25.2764 15.3885ZM25.5 17.9092C25.661 16.927 25.5732 16.0617 25.2764 15.3885L24.9104 15.5499C25.1686 16.1355 25.2571 16.9187 25.1053 17.8445L25.5 17.9092ZM25.8014 18.3645C25.6076 18.3298 25.4636 18.1317 25.5 17.9093L25.1053 17.8445C25.036 18.2676 25.307 18.6824 25.731 18.7582L25.8014 18.3645ZM26.2239 18.0447C26.1878 18.2653 25.9927 18.3987 25.8014 18.3645L25.731 18.7582C26.1575 18.8346 26.549 18.5344 26.6187 18.1094L26.2239 18.0447ZM25.9412 15.0538C26.3173 15.9068 26.4044 16.9437 26.2239 18.0447L26.6187 18.1094C26.8084 16.9521 26.722 15.8331 26.3072 14.8924L25.9412 15.0538ZM23.9761 13.2198C24.8972 13.5432 25.5616 14.1927 25.9412 15.0538L26.3072 14.8924C25.8854 13.9357 25.1396 13.2044 24.1086 12.8423L23.9761 13.2198Z" fill="#434343" mask="url(#path-1-outside-1)"/>
</svg>
